<?xml version="1.0" standalone="no"?>
<!DOCTYPE svg PUBLIC "-//W3C//DTD SVG 20010904//EN"
 "http://www.w3.org/TR/2001/REC-SVG-20010904/DTD/svg10.dtd">
<svg version="1.0" xmlns="http://www.w3.org/2000/svg"
 width="646.000000pt" height="386.000000pt" viewBox="0 0 646.000000 386.000000"
 preserveAspectRatio="xMidYMid meet">

<g transform="translate(0.000000,386.000000) scale(0.100000,-0.100000)"
fill="#000000" stroke="none">
<path d="M2760 3610 c-219 -14 -486 -40 -574 -56 -112 -22 -150 -40 -199 -94
-52 -58 -169 -255 -274 -457 l-78 -153 -177 0 -176 0 -31 -31 c-21 -20 -31
-40 -31 -60 0 -37 23 -84 47 -94 10 -5 75 -10 146 -13 70 -2 127 -8 127 -12 0
-20 -35 -28 -150 -37 -175 -13 -210 -30 -284 -133 -43 -61 -70 -88 -114 -113
-125 -73 -149 -167 -159 -620 -5 -217 -2 -306 12 -461 17 -180 17 -194 2 -217
-15 -20 -17 -55 -17 -256 0 -209 2 -238 20 -287 24 -62 80 -125 142 -158 41
-22 54 -23 304 -26 244 -3 263 -2 317 18 41 15 69 36 105 75 64 69 82 123 82
237 l0 89 130 -7 130 -7 0 38 c0 42 -16 24 252 283 70 67 132 122 137 122 5 0
87 -81 181 -181 l173 -181 -49 -49 -48 -49 466 0 c428 0 970 11 1229 25 l106
6 5 -98 c6 -125 31 -186 100 -248 79 -71 112 -77 405 -73 280 3 304 9 377 84
79 81 81 89 84 367 3 218 1 252 -13 274 -15 22 -15 35 -3 131 9 72 13 226 13
472 0 308 -3 380 -18 459 -28 144 -66 207 -151 247 -27 12 -54 39 -85 83 -90
127 -108 137 -290 151 -129 11 -151 16 -151 34 0 10 33 15 132 18 128 5 132 6
155 32 25 29 31 83 13 117 -23 43 -61 50 -236 48 l-165 -2 -61 119 c-137 268
-265 473 -330 529 -56 47 -171 69 -528 100 -209 19 -797 27 -1000 15z m845
-200 c241 -15 494 -41 548 -56 25 -8 78 -90 202 -312 103 -187 163 -308 154
-316 -2 -2 -62 7 -134 20 -757 135 -1711 133 -2468 -5 -54 -10 -100 -14 -102
-10 -9 13 82 191 241 474 52 93 94 143 122 149 122 24 447 53 807 70 99 5 440
-3 630 -14z m-641 -783 c97 -64 149 -183 127 -287 -16 -74 -14 -82 24 -127 41
-48 44 -63 11 -63 -14 0 -48 -5 -76 -12 -40 -9 -56 -9 -71 0 -14 9 -36 9 -92
0 -99 -15 -167 5 -237 71 -62 58 -89 118 -90 195 l0 58 72 -78 c40 -42 87 -83
105 -91 133 -55 258 74 197 202 -8 18 -44 61 -79 96 -36 35 -65 68 -65 73 0 5
27 6 61 3 47 -4 73 -13 113 -40z m441 -447 l39 -40 -59 -60 c-33 -33 -66 -60
-74 -60 -9 0 -35 19 -58 42 l-44 43 58 57 c32 31 67 57 78 57 12 1 38 -17 60
-39z m179 -110 c20 -22 36 -43 36 -47 0 -12 -153 -163 -165 -163 -13 0 -85 74
-85 87 0 17 153 162 171 163 4 0 23 -18 43 -40z m-281 -172 l167 -173 -25 -22
c-19 -17 -39 -23 -72 -23 -45 0 -49 2 -147 100 -71 72 -106 100 -121 98 -31
-5 -29 -40 5 -94 68 -107 68 -224 1 -324 -28 -42 -28 -45 -13 -67 23 -31 32
-29 66 13 36 46 64 118 72 189 4 30 9 55 11 55 3 0 16 -9 30 -20 14 -11 36
-20 48 -20 13 0 45 -18 71 -40 27 -22 55 -40 62 -40 7 0 19 -15 27 -34 8 -19
30 -51 50 -72 20 -21 34 -42 33 -48 -2 -6 -48 -55 -104 -109 l-100 -97 -105 6
-105 7 -50 -56 c-27 -31 -53 -57 -58 -57 -7 0 -149 145 -280 287 l-49 53 62
62 61 63 0 161 c0 188 -8 169 131 294 133 120 123 123 332 -92z m379 -5 c60
-65 60 -63 -59 -178 -59 -58 -116 -108 -126 -111 -36 -12 -31 8 11 43 63 52
69 68 38 108 -14 19 -26 37 -26 42 0 12 113 123 125 123 6 0 23 -12 37 -27z
m-2137 -82 c99 -11 224 -23 278 -27 82 -5 102 -10 118 -27 27 -29 49 -109 49
-178 l0 -57 -42 4 c-24 2 -128 8 -233 14 -412 23 -680 42 -688 50 -5 4 -6 71
-2 147 l7 139 167 -22 c91 -12 247 -32 346 -43z m3739 13 c3 -26 6 -91 6 -145
l0 -99 -32 0 c-18 0 -127 -7 -243 -15 -115 -8 -300 -19 -410 -25 -110 -6 -220
-12 -244 -14 l-44 -4 6 72 c5 73 25 137 53 167 11 13 40 19 117 24 96 6 415
42 627 70 162 21 156 22 164 -31z m-1486 -134 c17 -21 32 -47 32 -57 0 -24
-172 -183 -198 -183 -18 0 -82 61 -82 77 0 11 194 203 204 203 6 0 26 -18 44
-40z m45 -236 c21 -17 37 -24 51 -19 181 53 354 -63 373 -251 3 -30 3 -54 -1
-54 -4 0 -40 34 -80 75 -79 80 -105 95 -167 95 -86 0 -139 -53 -139 -139 0
-67 14 -92 101 -186 l64 -68 -63 6 c-73 8 -125 32 -168 79 -74 80 -97 161 -74
269 12 57 12 62 -9 89 -11 16 -21 33 -21 37 0 10 82 93 93 93 5 0 23 -12 40
-26z m-1057 -231 c92 -98 185 -196 207 -219 l38 -41 -61 -59 c-34 -32 -65 -60
-70 -62 -7 -3 -77 67 -343 343 l-86 90 62 63 c34 34 67 62 73 62 7 0 87 -80
180 -177z"/>
</g>
</svg>
