<?xml version="1.0" encoding="UTF-8"?>
<svg xmlns="http://www.w3.org/2000/svg" xmlns:xlink="http://www.w3.org/1999/xlink" width="50px" height="30px" viewBox="0 0 50 30" version="1.1">
<g id="surface1">
<path style=" stroke:none;fill-rule:nonzero;fill:rgb(255%,255%,255%);fill-opacity:1;" d="M 21.375 1.945312 C 19.679688 2.054688 17.613281 2.257812 16.929688 2.378906 C 16.0625 2.550781 15.769531 2.691406 15.390625 3.113281 C 14.984375 3.5625 14.078125 5.097656 13.265625 6.667969 L 12.664062 7.859375 L 9.929688 7.859375 L 9.6875 8.097656 C 9.527344 8.253906 9.449219 8.410156 9.449219 8.566406 C 9.449219 8.855469 9.625 9.21875 9.8125 9.296875 C 9.890625 9.335938 10.394531 9.375 10.941406 9.398438 C 11.484375 9.414062 11.925781 9.460938 11.925781 9.492188 C 11.925781 9.648438 11.65625 9.710938 10.765625 9.78125 C 9.410156 9.878906 9.140625 10.011719 8.566406 10.8125 C 8.234375 11.289062 8.023438 11.5 7.683594 11.695312 C 6.714844 12.261719 6.527344 12.992188 6.453125 16.515625 C 6.414062 18.207031 6.4375 18.898438 6.542969 20.105469 C 6.675781 21.503906 6.675781 21.613281 6.558594 21.792969 C 6.445312 21.949219 6.429688 22.21875 6.429688 23.785156 C 6.429688 25.410156 6.445312 25.636719 6.582031 26.015625 C 6.769531 26.5 7.203125 26.988281 7.683594 27.246094 C 8 27.417969 8.101562 27.425781 10.039062 27.449219 C 11.925781 27.472656 12.074219 27.464844 12.492188 27.308594 C 12.808594 27.191406 13.027344 27.027344 13.304688 26.722656 C 13.800781 26.1875 13.941406 25.769531 13.941406 24.878906 L 13.941406 24.1875 L 14.949219 24.242188 L 15.953125 24.296875 L 15.953125 24 C 15.953125 23.675781 15.832031 23.816406 17.90625 21.800781 C 18.449219 21.277344 18.929688 20.851562 18.96875 20.851562 C 19.003906 20.851562 19.640625 21.480469 20.367188 22.257812 L 21.707031 23.667969 L 21.328125 24.046875 L 20.957031 24.429688 L 24.566406 24.429688 C 27.882812 24.429688 32.078125 24.34375 34.085938 24.234375 L 34.90625 24.1875 L 34.945312 24.949219 C 34.992188 25.921875 35.183594 26.398438 35.71875 26.878906 C 36.332031 27.433594 36.585938 27.480469 38.855469 27.449219 C 41.023438 27.425781 41.210938 27.378906 41.773438 26.792969 C 42.386719 26.164062 42.402344 26.101562 42.425781 23.9375 C 42.449219 22.242188 42.433594 21.980469 42.324219 21.808594 C 42.207031 21.636719 42.207031 21.535156 42.300781 20.789062 C 42.371094 20.226562 42.402344 19.03125 42.402344 17.117188 C 42.402344 14.71875 42.378906 14.160156 42.261719 13.546875 C 42.046875 12.425781 41.75 11.933594 41.09375 11.625 C 40.882812 11.53125 40.675781 11.320312 40.433594 10.976562 C 39.738281 9.988281 39.597656 9.910156 38.1875 9.804688 C 37.191406 9.71875 37.019531 9.679688 37.019531 9.539062 C 37.019531 9.460938 37.277344 9.421875 38.042969 9.398438 C 39.035156 9.359375 39.0625 9.351562 39.242188 9.148438 C 39.4375 8.921875 39.484375 8.503906 39.34375 8.238281 C 39.164062 7.90625 38.871094 7.851562 37.515625 7.867188 L 36.238281 7.882812 L 35.765625 6.957031 C 34.703125 4.871094 33.710938 3.277344 33.210938 2.839844 C 32.777344 2.472656 31.886719 2.304688 29.121094 2.0625 C 27.5 1.914062 22.949219 1.851562 21.375 1.945312 Z M 27.917969 3.5 C 29.785156 3.617188 31.746094 3.820312 32.164062 3.9375 C 32.359375 4 32.769531 4.636719 33.726562 6.363281 C 34.527344 7.820312 34.992188 8.761719 34.921875 8.824219 C 34.90625 8.839844 34.441406 8.769531 33.882812 8.667969 C 28.019531 7.617188 20.632812 7.632812 14.769531 8.707031 C 14.351562 8.785156 13.996094 8.816406 13.980469 8.785156 C 13.910156 8.683594 14.613281 7.296875 15.847656 5.097656 C 16.25 4.371094 16.574219 3.984375 16.789062 3.9375 C 17.734375 3.75 20.253906 3.523438 23.039062 3.390625 C 23.808594 3.351562 26.449219 3.414062 27.917969 3.5 Z M 22.957031 9.59375 C 23.707031 10.089844 24.109375 11.015625 23.9375 11.824219 C 23.816406 12.402344 23.832031 12.464844 24.125 12.8125 C 24.441406 13.1875 24.464844 13.304688 24.210938 13.304688 C 24.101562 13.304688 23.839844 13.34375 23.621094 13.398438 C 23.3125 13.46875 23.1875 13.46875 23.070312 13.398438 C 22.964844 13.328125 22.792969 13.328125 22.359375 13.398438 C 21.59375 13.515625 21.066406 13.359375 20.523438 12.84375 C 20.042969 12.394531 19.835938 11.925781 19.828125 11.328125 L 19.828125 10.875 L 20.382812 11.484375 C 20.695312 11.808594 21.058594 12.128906 21.199219 12.191406 C 22.226562 12.621094 23.195312 11.617188 22.722656 10.621094 C 22.660156 10.480469 22.382812 10.144531 22.109375 9.871094 C 21.832031 9.601562 21.609375 9.34375 21.609375 9.304688 C 21.609375 9.265625 21.816406 9.257812 22.082031 9.28125 C 22.445312 9.3125 22.644531 9.382812 22.957031 9.59375 Z M 26.371094 13.070312 L 26.671875 13.382812 L 26.214844 13.847656 C 25.960938 14.105469 25.703125 14.316406 25.644531 14.316406 C 25.574219 14.316406 25.371094 14.167969 25.195312 13.988281 L 24.851562 13.652344 L 25.300781 13.210938 C 25.550781 12.96875 25.820312 12.765625 25.90625 12.765625 C 26 12.757812 26.199219 12.898438 26.371094 13.070312 Z M 27.757812 13.925781 C 27.910156 14.097656 28.035156 14.261719 28.035156 14.292969 C 28.035156 14.386719 26.851562 15.558594 26.757812 15.558594 C 26.65625 15.558594 26.101562 14.984375 26.101562 14.882812 C 26.101562 14.75 27.285156 13.621094 27.425781 13.613281 C 27.457031 13.613281 27.601562 13.753906 27.757812 13.925781 Z M 25.582031 15.265625 L 26.875 16.609375 L 26.679688 16.78125 C 26.535156 16.914062 26.378906 16.960938 26.121094 16.960938 C 25.773438 16.960938 25.742188 16.945312 24.984375 16.183594 C 24.433594 15.621094 24.164062 15.40625 24.046875 15.421875 C 23.808594 15.460938 23.824219 15.730469 24.085938 16.152344 C 24.613281 16.984375 24.613281 17.894531 24.09375 18.671875 C 23.878906 19 23.878906 19.023438 23.992188 19.195312 C 24.171875 19.433594 24.242188 19.417969 24.503906 19.09375 C 24.78125 18.734375 25 18.175781 25.0625 17.621094 C 25.09375 17.386719 25.132812 17.195312 25.148438 17.195312 C 25.171875 17.195312 25.269531 17.265625 25.378906 17.347656 C 25.488281 17.433594 25.660156 17.503906 25.75 17.503906 C 25.851562 17.503906 26.101562 17.644531 26.300781 17.816406 C 26.511719 17.988281 26.726562 18.128906 26.78125 18.128906 C 26.835938 18.128906 26.929688 18.246094 26.992188 18.390625 C 27.050781 18.539062 27.222656 18.789062 27.378906 18.953125 C 27.53125 19.117188 27.640625 19.277344 27.632812 19.324219 C 27.617188 19.371094 27.261719 19.753906 26.828125 20.171875 L 26.054688 20.929688 L 25.238281 20.882812 L 24.425781 20.828125 L 24.039062 21.261719 C 23.832031 21.503906 23.628906 21.707031 23.589844 21.707031 C 23.535156 21.707031 22.4375 20.578125 21.421875 19.472656 L 21.042969 19.0625 L 21.523438 18.578125 L 21.996094 18.089844 L 21.996094 16.835938 C 21.996094 15.375 21.933594 15.519531 23.007812 14.546875 C 24.039062 13.613281 23.960938 13.59375 25.582031 15.265625 Z M 28.515625 15.304688 C 28.980469 15.808594 28.980469 15.792969 28.058594 16.6875 C 27.601562 17.140625 27.160156 17.527344 27.082031 17.550781 C 26.804688 17.644531 26.84375 17.488281 27.167969 17.21875 C 27.65625 16.8125 27.703125 16.6875 27.460938 16.378906 C 27.355469 16.230469 27.261719 16.089844 27.261719 16.050781 C 27.261719 15.957031 28.136719 15.09375 28.230469 15.09375 C 28.277344 15.09375 28.40625 15.1875 28.515625 15.304688 Z M 11.964844 15.941406 C 12.730469 16.027344 13.699219 16.121094 14.117188 16.152344 C 14.753906 16.191406 14.910156 16.230469 15.03125 16.363281 C 15.242188 16.585938 15.410156 17.210938 15.410156 17.746094 L 15.410156 18.191406 L 15.085938 18.160156 C 14.902344 18.144531 14.09375 18.097656 13.28125 18.050781 C 10.089844 17.871094 8.015625 17.722656 7.953125 17.660156 C 7.914062 17.628906 7.90625 17.109375 7.9375 16.515625 L 7.992188 15.4375 L 9.285156 15.605469 C 9.992188 15.699219 11.199219 15.855469 11.964844 15.941406 Z M 40.921875 15.839844 C 40.945312 16.042969 40.96875 16.546875 40.96875 16.96875 L 40.96875 17.738281 L 40.722656 17.738281 C 40.582031 17.738281 39.738281 17.792969 38.839844 17.855469 C 37.949219 17.917969 36.515625 18.003906 35.664062 18.050781 C 34.8125 18.097656 33.960938 18.144531 33.773438 18.160156 L 33.433594 18.191406 L 33.480469 17.628906 C 33.519531 17.0625 33.675781 16.5625 33.890625 16.332031 C 33.976562 16.230469 34.199219 16.183594 34.796875 16.144531 C 35.539062 16.097656 38.011719 15.816406 39.652344 15.597656 C 40.90625 15.4375 40.859375 15.429688 40.921875 15.839844 Z M 29.414062 16.882812 C 29.546875 17.046875 29.664062 17.25 29.664062 17.328125 C 29.664062 17.511719 28.332031 18.75 28.128906 18.75 C 27.988281 18.75 27.492188 18.277344 27.492188 18.152344 C 27.492188 18.066406 28.996094 16.570312 29.074219 16.570312 C 29.121094 16.570312 29.273438 16.710938 29.414062 16.882812 Z M 29.761719 18.71875 C 29.925781 18.851562 30.050781 18.90625 30.15625 18.867188 C 31.558594 18.453125 32.898438 19.355469 33.046875 20.820312 C 33.070312 21.054688 33.070312 21.238281 33.039062 21.238281 C 33.007812 21.238281 32.730469 20.976562 32.417969 20.65625 C 31.808594 20.035156 31.605469 19.917969 31.125 19.917969 C 30.460938 19.917969 30.050781 20.328125 30.050781 21 C 30.050781 21.519531 30.15625 21.714844 30.832031 22.445312 L 31.328125 22.972656 L 30.839844 22.929688 C 30.273438 22.867188 29.871094 22.679688 29.539062 22.3125 C 28.964844 21.691406 28.789062 21.0625 28.964844 20.21875 C 29.058594 19.777344 29.058594 19.738281 28.894531 19.527344 C 28.808594 19.402344 28.734375 19.269531 28.734375 19.238281 C 28.734375 19.164062 29.367188 18.515625 29.453125 18.515625 C 29.492188 18.515625 29.632812 18.609375 29.761719 18.71875 Z M 21.578125 20.515625 C 22.289062 21.277344 23.007812 22.039062 23.179688 22.21875 L 23.472656 22.539062 L 23 22.996094 C 22.738281 23.246094 22.5 23.464844 22.460938 23.480469 C 22.40625 23.503906 21.863281 22.960938 19.804688 20.8125 L 19.136719 20.113281 L 19.617188 19.621094 C 19.878906 19.355469 20.136719 19.140625 20.183594 19.140625 C 20.238281 19.140625 20.855469 19.761719 21.578125 20.515625 Z M 21.578125 20.515625 "/>
</g>
</svg>
