<?xml version="1.0" encoding="utf-8"?>
<!-- Generator: Adobe Illustrator 27.5.0, SVG Export Plug-In . SVG Version: 6.00 Build 0)  -->
<svg version="1.1" xmlns="http://www.w3.org/2000/svg" xmlns:xlink="http://www.w3.org/1999/xlink" x="0px" y="0px"
	 viewBox="0 0 500 500" style="enable-background:new 0 0 500 500;" xml:space="preserve">
<g id="Background_Complete">
	<g>
		<rect x="416.779" y="398.494" style="fill:#EBEBEB;" width="33.122" height="0.25"/>
		<rect x="322.527" y="401.208" style="fill:#EBEBEB;" width="8.693" height="0.25"/>
		<rect x="396.586" y="389.208" style="fill:#EBEBEB;" width="19.192" height="0.25"/>
		<rect x="52.459" y="390.888" style="fill:#EBEBEB;" width="43.193" height="0.25"/>
		<rect x="104.556" y="390.888" style="fill:#EBEBEB;" width="6.333" height="0.25"/>
		<rect x="131.471" y="395.111" style="fill:#EBEBEB;" width="93.676" height="0.25"/>
		<path style="fill:#EBEBEB;" d="M237.014,337.8H43.915c-3.147,0-5.708-2.561-5.708-5.708V60.66c0-3.147,2.561-5.708,5.708-5.708
			h193.099c3.146,0,5.707,2.561,5.707,5.708v271.432C242.721,335.239,240.16,337.8,237.014,337.8z M43.915,55.203
			c-3.01,0-5.458,2.448-5.458,5.458v271.432c0,3.01,2.448,5.458,5.458,5.458h193.099c3.009,0,5.457-2.448,5.457-5.458V60.66
			c0-3.009-2.448-5.458-5.457-5.458H43.915z"/>
		<path style="fill:#EBEBEB;" d="M453.31,337.8H260.212c-3.147,0-5.707-2.561-5.707-5.708V60.66c0-3.147,2.561-5.708,5.707-5.708
			H453.31c3.148,0,5.708,2.561,5.708,5.708v271.432C459.019,335.239,456.458,337.8,453.31,337.8z M260.212,55.203
			c-3.009,0-5.457,2.448-5.457,5.458v271.432c0,3.01,2.448,5.458,5.457,5.458H453.31c3.01,0,5.458-2.448,5.458-5.458V60.66
			c0-3.009-2.448-5.458-5.458-5.458H260.212z"/>
		<rect y="382.398" style="fill:#EBEBEB;" width="500" height="0.25"/>
	</g>
	<g>
		<g>
			<rect x="169.123" y="189.647" style="fill:#F0F0F0;" width="47.872" height="192.122"/>
			<rect x="168.357" y="199.964" style="fill:#F5F5F5;" width="50.175" height="7.07"/>
			<rect x="168.357" y="215.237" style="fill:#F5F5F5;" width="50.175" height="7.07"/>
			<rect x="168.357" y="230.511" style="fill:#F5F5F5;" width="50.175" height="7.07"/>
			<rect x="168.357" y="245.785" style="fill:#F5F5F5;" width="50.175" height="7.07"/>
			<rect x="168.357" y="261.059" style="fill:#F5F5F5;" width="50.175" height="7.07"/>
			<rect x="168.357" y="276.333" style="fill:#F5F5F5;" width="50.175" height="7.07"/>
			<rect x="168.357" y="291.606" style="fill:#F5F5F5;" width="50.175" height="7.07"/>
			<rect x="168.357" y="306.88" style="fill:#F5F5F5;" width="50.175" height="7.07"/>
			<rect x="168.357" y="322.154" style="fill:#F5F5F5;" width="50.175" height="7.07"/>
			<rect x="168.357" y="337.428" style="fill:#F5F5F5;" width="50.175" height="7.07"/>
			<rect x="168.357" y="352.702" style="fill:#F5F5F5;" width="50.175" height="7.07"/>
			<rect x="168.357" y="367.975" style="fill:#F5F5F5;" width="50.175" height="7.07"/>
		</g>
		<g>
			<polygon style="fill:#EBEBEB;" points="143.162,381.769 86.378,381.769 86.378,124.484 143.162,147.558 			"/>
			<rect x="89.437" y="151.604" style="fill:#FAFAFA;" width="15.519" height="15.519"/>
			<rect x="107.011" y="151.604" style="fill:#F0F0F0;" width="15.519" height="15.519"/>
			<rect x="124.584" y="151.604" style="fill:#FAFAFA;" width="15.519" height="15.519"/>
			<rect x="89.437" y="168.937" style="fill:#FAFAFA;" width="15.519" height="15.519"/>
			<rect x="107.011" y="168.937" style="fill:#FAFAFA;" width="15.519" height="15.519"/>
			<rect x="124.584" y="168.937" style="fill:#FAFAFA;" width="15.519" height="15.519"/>
			<rect x="89.437" y="186.271" style="fill:#FAFAFA;" width="15.519" height="15.519"/>
			<rect x="107.011" y="186.271" style="fill:#F0F0F0;" width="15.519" height="15.519"/>
			<rect x="124.584" y="186.271" style="fill:#FAFAFA;" width="15.519" height="15.519"/>
			<rect x="89.437" y="203.604" style="fill:#F0F0F0;" width="15.519" height="15.519"/>
			<rect x="107.011" y="203.604" style="fill:#FAFAFA;" width="15.519" height="15.519"/>
			<rect x="124.584" y="203.604" style="fill:#FAFAFA;" width="15.519" height="15.519"/>
			<rect x="89.437" y="220.937" style="fill:#FAFAFA;" width="15.519" height="15.519"/>
			<rect x="107.011" y="220.937" style="fill:#FAFAFA;" width="15.519" height="15.519"/>
			<rect x="124.584" y="220.937" style="fill:#F0F0F0;" width="15.519" height="15.519"/>
			<rect x="89.437" y="238.271" style="fill:#FAFAFA;" width="15.519" height="15.519"/>
			<rect x="107.011" y="238.271" style="fill:#F0F0F0;" width="15.519" height="15.519"/>
			<rect x="124.584" y="238.271" style="fill:#FAFAFA;" width="15.519" height="15.519"/>
			<rect x="89.437" y="255.604" style="fill:#F0F0F0;" width="15.519" height="15.519"/>
			<rect x="107.011" y="255.604" style="fill:#F0F0F0;" width="15.519" height="15.519"/>
			<rect x="124.584" y="255.604" style="fill:#FAFAFA;" width="15.519" height="15.519"/>
			<rect x="89.437" y="272.937" style="fill:#FAFAFA;" width="15.519" height="15.519"/>
			<rect x="107.011" y="272.937" style="fill:#F0F0F0;" width="15.519" height="15.519"/>
			<rect x="124.584" y="272.937" style="fill:#FAFAFA;" width="15.519" height="15.519"/>
			<rect x="89.437" y="290.271" style="fill:#FAFAFA;" width="15.519" height="15.519"/>
			<rect x="107.011" y="290.271" style="fill:#FAFAFA;" width="15.519" height="15.519"/>
			<rect x="124.584" y="290.271" style="fill:#FAFAFA;" width="15.519" height="15.519"/>
			<rect x="89.437" y="307.604" style="fill:#F0F0F0;" width="15.519" height="15.519"/>
			<rect x="107.011" y="307.604" style="fill:#FAFAFA;" width="15.519" height="15.519"/>
			<rect x="124.584" y="307.604" style="fill:#F0F0F0;" width="15.519" height="15.519"/>
			<rect x="89.437" y="324.937" style="fill:#FAFAFA;" width="15.519" height="15.519"/>
			<rect x="107.011" y="324.937" style="fill:#F0F0F0;" width="15.519" height="15.519"/>
			<rect x="124.584" y="324.937" style="fill:#FAFAFA;" width="15.519" height="15.519"/>
			<rect x="89.437" y="342.271" style="fill:#F0F0F0;" width="15.519" height="15.519"/>
			<rect x="107.011" y="342.271" style="fill:#FAFAFA;" width="15.519" height="15.519"/>
			<rect x="124.584" y="342.271" style="fill:#FAFAFA;" width="15.519" height="15.519"/>
		</g>
		<g>
			<polygon style="fill:#F0F0F0;" points="412.626,381.769 363.54,381.769 363.54,159.364 412.626,179.31 			"/>
			<rect x="379.216" y="176.716" style="fill:#FAFAFA;" width="7.4" height="7.4"/>
			<rect x="368.881" y="187.876" style="fill:#FAFAFA;" width="7.4" height="7.4"/>
			<rect x="368.881" y="199.035" style="fill:#FAFAFA;" width="7.4" height="7.4"/>
			<rect x="379.216" y="199.035" style="fill:#FAFAFA;" width="7.4" height="7.4"/>
			<rect x="389.55" y="199.035" style="fill:#FAFAFA;" width="7.4" height="7.4"/>
			<rect x="368.881" y="221.355" style="fill:#FAFAFA;" width="7.4" height="7.4"/>
			<rect x="389.55" y="221.355" style="fill:#FAFAFA;" width="7.4" height="7.4"/>
			<rect x="379.216" y="232.515" style="fill:#FAFAFA;" width="7.4" height="7.4"/>
			<rect x="368.881" y="243.674" style="fill:#FAFAFA;" width="7.4" height="7.4"/>
			<rect x="389.55" y="243.674" style="fill:#FAFAFA;" width="7.4" height="7.4"/>
			<rect x="399.885" y="243.674" style="fill:#FAFAFA;" width="7.4" height="7.4"/>
			<rect x="379.216" y="254.834" style="fill:#FAFAFA;" width="7.4" height="7.4"/>
			<rect x="368.881" y="265.994" style="fill:#FAFAFA;" width="7.4" height="7.4"/>
			<rect x="379.216" y="265.994" style="fill:#FAFAFA;" width="7.4" height="7.4"/>
			<rect x="399.885" y="265.994" style="fill:#FAFAFA;" width="7.4" height="7.4"/>
			
				<rect x="368.882" y="276.932" transform="matrix(0.9999 0.0143 -0.0143 0.9999 4.0619 -5.3131)" style="fill:#FAFAFA;" width="7.4" height="7.4"/>
			
				<rect x="389.55" y="277.228" transform="matrix(0.9999 0.0143 -0.0143 0.9999 4.0644 -5.6042)" style="fill:#FAFAFA;" width="7.4" height="7.4"/>
			
				<rect x="399.883" y="277.376" transform="matrix(0.9999 0.0143 -0.0143 0.9999 4.0714 -5.7575)" style="fill:#FAFAFA;" width="7.4" height="7.4"/>
			<rect x="379.216" y="288.314" style="fill:#FAFAFA;" width="7.4" height="7.4"/>
			<g>
				
					<rect x="399.885" y="298.456" transform="matrix(-1 -1.224647e-16 1.224647e-16 -1 807.17 604.3115)" style="fill:#FAFAFA;" width="7.4" height="7.4"/>
				
					<rect x="379.216" y="298.456" transform="matrix(-1 -1.224647e-16 1.224647e-16 -1 765.8314 604.3115)" style="fill:#FAFAFA;" width="7.4" height="7.4"/>
				
					<rect x="368.881" y="298.456" transform="matrix(-1 -1.224647e-16 1.224647e-16 -1 745.1618 604.3115)" style="fill:#FAFAFA;" width="7.4" height="7.4"/>
				
					<rect x="389.55" y="309.616" transform="matrix(-1 -1.224647e-16 1.224647e-16 -1 786.5006 626.6311)" style="fill:#FAFAFA;" width="7.4" height="7.4"/>
				
					<rect x="399.885" y="320.775" transform="matrix(-1 -1.224647e-16 1.224647e-16 -1 807.17 648.9507)" style="fill:#FAFAFA;" width="7.4" height="7.4"/>
				
					<rect x="389.55" y="320.775" transform="matrix(-1 -1.224647e-16 1.224647e-16 -1 786.5006 648.9507)" style="fill:#FAFAFA;" width="7.4" height="7.4"/>
				
					<rect x="368.881" y="320.775" transform="matrix(-1 -1.224647e-16 1.224647e-16 -1 745.1618 648.9507)" style="fill:#FAFAFA;" width="7.4" height="7.4"/>
				
					<rect x="399.883" y="331.713" transform="matrix(-0.9999 0.0143 -0.0143 -0.9999 811.9341 665.0048)" style="fill:#FAFAFA;" width="7.4" height="7.4"/>
				
					<rect x="379.216" y="332.009" transform="matrix(-0.9999 0.0143 -0.0143 -0.9999 770.6064 665.8939)" style="fill:#FAFAFA;" width="7.4" height="7.4"/>
				
					<rect x="368.883" y="332.157" transform="matrix(-0.9999 0.0143 -0.0143 -0.9999 749.938 666.3436)" style="fill:#FAFAFA;" width="7.4" height="7.4"/>
				
					<rect x="389.55" y="343.095" transform="matrix(-1 -1.224647e-16 1.224647e-16 -1 786.5006 693.5898)" style="fill:#FAFAFA;" width="7.4" height="7.4"/>
			</g>
		</g>
		<g>
			<polygon style="fill:#F0F0F0;" points="349.105,153.491 349.105,143.796 329.501,143.796 329.501,153.491 296.967,153.491 
				296.967,381.769 353.848,381.769 353.848,153.491 			"/>
			<g>
				<rect x="315.341" y="165.749" style="fill:#FAFAFA;" width="8.401" height="8.401"/>
				<rect x="327.074" y="165.749" style="fill:#FAFAFA;" width="8.401" height="8.401"/>
				<rect x="303.608" y="178.418" style="fill:#FAFAFA;" width="8.401" height="8.401"/>
				<rect x="315.341" y="178.418" style="fill:#FAFAFA;" width="8.401" height="8.401"/>
				<rect x="338.806" y="178.418" style="fill:#FAFAFA;" width="8.401" height="8.401"/>
				<rect x="303.608" y="191.087" style="fill:#FAFAFA;" width="8.401" height="8.401"/>
				<rect x="327.074" y="191.087" style="fill:#FAFAFA;" width="8.401" height="8.401"/>
				<rect x="338.806" y="191.087" style="fill:#FAFAFA;" width="8.401" height="8.401"/>
				<rect x="303.608" y="216.426" style="fill:#FAFAFA;" width="8.401" height="8.401"/>
				<rect x="327.074" y="216.426" style="fill:#FAFAFA;" width="8.401" height="8.401"/>
				<rect x="303.608" y="229.095" style="fill:#FAFAFA;" width="8.401" height="8.401"/>
				<rect x="315.341" y="229.095" style="fill:#FAFAFA;" width="8.401" height="8.401"/>
				<rect x="338.806" y="229.095" style="fill:#FAFAFA;" width="8.401" height="8.401"/>
				<rect x="303.608" y="292.355" style="fill:#FAFAFA;" width="8.401" height="8.401"/>
				<rect x="315.341" y="292.355" style="fill:#FAFAFA;" width="8.401" height="8.401"/>
				<rect x="338.806" y="292.355" style="fill:#FAFAFA;" width="8.401" height="8.401"/>
				<rect x="303.608" y="305.024" style="fill:#FAFAFA;" width="8.401" height="8.401"/>
				<rect x="327.074" y="305.024" style="fill:#FAFAFA;" width="8.401" height="8.401"/>
				<rect x="338.806" y="305.024" style="fill:#FAFAFA;" width="8.401" height="8.401"/>
				<rect x="303.608" y="330.363" style="fill:#FAFAFA;" width="8.401" height="8.401"/>
				<rect x="327.074" y="330.363" style="fill:#FAFAFA;" width="8.401" height="8.401"/>
				<rect x="303.608" y="343.032" style="fill:#FAFAFA;" width="8.401" height="8.401"/>
				<rect x="315.341" y="343.032" style="fill:#FAFAFA;" width="8.401" height="8.401"/>
				<rect x="338.806" y="343.032" style="fill:#FAFAFA;" width="8.401" height="8.401"/>
				<rect x="338.806" y="241.764" style="fill:#FAFAFA;" width="8.401" height="8.401"/>
				<rect x="303.608" y="254.434" style="fill:#FAFAFA;" width="8.401" height="8.401"/>
				<rect x="315.341" y="254.434" style="fill:#FAFAFA;" width="8.401" height="8.401"/>
				
					<rect x="327.073" y="267.187" transform="matrix(0.9999 0.0143 -0.0143 0.9999 3.9233 -4.7197)" style="fill:#FAFAFA;" width="8.401" height="8.401"/>
				
					<rect x="338.804" y="267.355" transform="matrix(0.9999 0.0143 -0.0143 0.9999 3.9237 -4.8839)" style="fill:#FAFAFA;" width="8.401" height="8.401"/>
				<rect x="303.608" y="279.772" style="fill:#FAFAFA;" width="8.401" height="8.401"/>
			</g>
		</g>
		<g>
			<rect x="231.158" y="189.647" style="fill:#EBEBEB;" width="47.872" height="192.122"/>
			<rect x="230.391" y="199.964" style="fill:#F5F5F5;" width="50.175" height="7.07"/>
			<rect x="230.391" y="215.237" style="fill:#F5F5F5;" width="50.175" height="7.07"/>
			<rect x="230.391" y="230.511" style="fill:#F5F5F5;" width="50.175" height="7.07"/>
			<rect x="230.391" y="245.785" style="fill:#F5F5F5;" width="50.175" height="7.07"/>
			<rect x="230.391" y="261.059" style="fill:#F5F5F5;" width="50.175" height="7.07"/>
			<rect x="230.391" y="276.333" style="fill:#F5F5F5;" width="50.175" height="7.07"/>
			<rect x="230.391" y="291.606" style="fill:#F5F5F5;" width="50.175" height="7.07"/>
			<rect x="230.391" y="306.88" style="fill:#F5F5F5;" width="50.175" height="7.07"/>
			<rect x="230.391" y="322.154" style="fill:#F5F5F5;" width="50.175" height="7.07"/>
			<rect x="230.391" y="337.428" style="fill:#F5F5F5;" width="50.175" height="7.07"/>
			<rect x="230.391" y="352.702" style="fill:#F5F5F5;" width="50.175" height="7.07"/>
			<rect x="230.391" y="367.975" style="fill:#F5F5F5;" width="50.175" height="7.07"/>
		</g>
		<path style="fill:#F0F0F0;" d="M237.031,86.315c-1.374,0-2.68,0.445-3.779,1.192c0.471-1.021,0.785-2.12,0.886-3.274
			c0.453-5.173-3.374-9.366-8.546-9.366c-1.59,0-3.12,0.399-4.493,1.098c-1.023-3.547-4.215-6.076-8.229-6.076
			c-5.173,0-9.733,4.193-10.185,9.366c-0.037,0.424-0.035,0.838-0.016,1.247c-0.767-0.214-1.579-0.338-2.432-0.338
			c-5.173,0-9.733,4.193-10.185,9.366c-0.452,5.173,3.374,9.366,8.547,9.366c5.173,0,33.859,0,37.333,0
			c3.474,0,6.537-2.816,6.841-6.291C243.075,89.131,240.505,86.315,237.031,86.315z"/>
		<path style="fill:#F5F5F5;" d="M199.008,94.834c-2.086,0-4.069,0.676-5.74,1.811c0.715-1.55,1.193-3.22,1.346-4.972
			c0.687-7.855-5.124-14.223-12.979-14.223c-2.415,0-4.739,0.606-6.823,1.667c-1.553-5.387-6.402-9.228-12.496-9.228
			c-7.855,0-14.781,6.368-15.468,14.223c-0.056,0.644-0.053,1.273-0.025,1.894c-1.164-0.325-2.397-0.513-3.693-0.513
			c-7.855,0-14.78,6.368-15.468,14.223c-0.687,7.855,5.123,14.223,12.979,14.223c7.855,0,51.419,0,56.695,0
			c5.276,0,9.927-4.277,10.389-9.553C208.188,99.111,204.285,94.834,199.008,94.834z"/>
		<path style="fill:#FAFAFA;" d="M407.025,110.659c-2.086,0-4.069,0.676-5.74,1.811c0.715-1.55,1.193-3.22,1.346-4.972
			c0.687-7.855-5.123-14.224-12.979-14.224c-2.414,0-4.739,0.606-6.823,1.668c-1.553-5.387-6.401-9.228-12.496-9.228
			c-7.855,0-14.781,6.368-15.468,14.223c-0.056,0.644-0.054,1.273-0.025,1.894c-1.164-0.325-2.397-0.513-3.693-0.513
			c-7.856,0-14.781,6.368-15.468,14.223c-0.687,7.855,5.124,14.223,12.979,14.223c7.855,0,51.419,0,56.695,0
			c5.276,0,9.927-4.277,10.389-9.553C416.204,114.936,412.301,110.659,407.025,110.659z"/>
		<path style="fill:#F5F5F5;" d="M346.282,106.462c-1.406,0-2.743,0.456-3.869,1.221c0.482-1.045,0.804-2.17,0.907-3.351
			c0.463-5.295-3.453-9.587-8.748-9.587c-1.627,0-3.194,0.409-4.599,1.124c-1.047-3.631-4.315-6.22-8.423-6.22
			c-5.295,0-9.963,4.292-10.426,9.587c-0.038,0.434-0.036,0.858-0.017,1.277c-0.785-0.219-1.616-0.346-2.489-0.346
			c-5.295,0-9.963,4.292-10.426,9.587c-0.463,5.295,3.453,9.587,8.748,9.587c5.295,0,34.659,0,38.215,0s6.692-2.883,7.003-6.439
			C352.469,109.345,349.838,106.462,346.282,106.462z"/>
	</g>
</g>
<g id="Background_Simple" style="display:none;">
	<g style="display:inline;">
		<path style="fill:#407BFF;" d="M444.214,242.994c-10.614-66.571-73.537-70.203-146.051-50.938
			c-80.534,21.395-66.837-71.597-158.784-48.617c-83.75,20.931-114.519,158.66,2.989,222.723
			C302.628,453.531,458.628,333.401,444.214,242.994z"/>
		<path style="opacity:0.9;fill:#FFFFFF;" d="M444.214,242.994c-10.614-66.571-73.537-70.203-146.051-50.938
			c-80.534,21.395-66.837-71.597-158.784-48.617c-83.75,20.931-114.519,158.66,2.989,222.723
			C302.628,453.531,458.628,333.401,444.214,242.994z"/>
	</g>
</g>
<g id="Shadow">
	<ellipse id="_x3C_Path_x3E__1_" style="fill:#F5F5F5;" cx="245.178" cy="412.391" rx="193.889" ry="11.323"/>
</g>
<g id="Car">
	<g>
		<g>
			<g>
				<path style="fill:#263238;" d="M231.25,323.709l207.379,15.471c5.385,0.402,10.077-3.638,10.479-9.024l3.115-41.755
					c0.178-2.39-0.232-4.787-1.195-6.982l-7.979-18.181c-2.661-6.063-8.452-10.161-15.055-10.654l-90.963-6.786
					c-13.544-1.01-27.038,2.518-38.354,10.028l-23.144,15.359l-40.846,4.624c-5.627,0.637-10.54,4.102-13.029,9.189l-4.053,8.285
					c-1.105,2.258-1.681,4.737-1.687,7.251l-0.014,6.608C215.885,315.831,222.582,323.062,231.25,323.709z"/>
				<path style="fill:#263238;" d="M449.065,330.49l-4.827-0.27c-3.016-13.202-14.324-23.479-28.535-24.539
					c-14.621-1.091-27.659,7.921-32.278,21.133l-96.703-5.416c-1.891-14.605-13.819-26.37-29.08-27.509
					c-15.665-1.169-29.508,9.259-33.13,24.025l-4.868-0.273c1.183,1.45,2.617,2.683,4.223,3.667c-0.001,0.01-0.003,0.02-0.005,0.03
					c0.159,0.097,0.332,0.172,0.494,0.263c0.247,0.14,0.497,0.273,0.752,0.401c0.268,0.133,0.537,0.262,0.813,0.381
					c0.301,0.131,0.61,0.247,0.921,0.36c0.252,0.091,0.502,0.186,0.76,0.265c0.374,0.115,0.757,0.207,1.143,0.297
					c0.214,0.049,0.422,0.11,0.639,0.151c0.611,0.116,1.232,0.205,1.866,0.252l55.647,4.151l94.837,7.075l56.895,4.245
					c0.314,0.023,0.625,0.03,0.934,0.023c0.104-0.002,0.207-0.013,0.31-0.018c0.203-0.011,0.405-0.022,0.605-0.045
					c0.121-0.014,0.241-0.035,0.361-0.054c0.179-0.027,0.357-0.056,0.533-0.093c0.125-0.026,0.247-0.058,0.37-0.089
					c0.167-0.042,0.334-0.087,0.498-0.138c0.122-0.038,0.242-0.079,0.362-0.121c0.163-0.057,0.324-0.119,0.483-0.185
					c0.113-0.047,0.224-0.094,0.335-0.145c0.164-0.075,0.325-0.157,0.485-0.241c0.098-0.052,0.197-0.103,0.294-0.158
					c0.175-0.1,0.345-0.208,0.514-0.319c0.073-0.048,0.149-0.094,0.22-0.144c0.035-0.024,0.072-0.045,0.106-0.069
					c0-0.004,0-0.007,0-0.011C447.222,335.805,448.753,333.354,449.065,330.49z"/>
				<path style="opacity:0.4;fill:#FFFFFF;" d="M449.065,330.49l-4.827-0.27c-3.016-13.202-14.324-23.479-28.535-24.539
					c-14.621-1.091-27.659,7.921-32.278,21.133l-96.703-5.416c-1.891-14.605-13.819-26.37-29.08-27.509
					c-15.665-1.169-29.508,9.259-33.13,24.025l-4.868-0.273c1.183,1.45,2.617,2.683,4.223,3.667c-0.001,0.01-0.003,0.02-0.005,0.03
					c0.159,0.097,0.332,0.172,0.494,0.263c0.247,0.14,0.497,0.273,0.752,0.401c0.268,0.133,0.537,0.262,0.813,0.381
					c0.301,0.131,0.61,0.247,0.921,0.36c0.252,0.091,0.502,0.186,0.76,0.265c0.374,0.115,0.757,0.207,1.143,0.297
					c0.214,0.049,0.422,0.11,0.639,0.151c0.611,0.116,1.232,0.205,1.866,0.252l55.647,4.151l94.837,7.075l56.895,4.245
					c0.314,0.023,0.625,0.03,0.934,0.023c0.104-0.002,0.207-0.013,0.31-0.018c0.203-0.011,0.405-0.022,0.605-0.045
					c0.121-0.014,0.241-0.035,0.361-0.054c0.179-0.027,0.357-0.056,0.533-0.093c0.125-0.026,0.247-0.058,0.37-0.089
					c0.167-0.042,0.334-0.087,0.498-0.138c0.122-0.038,0.242-0.079,0.362-0.121c0.163-0.057,0.324-0.119,0.483-0.185
					c0.113-0.047,0.224-0.094,0.335-0.145c0.164-0.075,0.325-0.157,0.485-0.241c0.098-0.052,0.197-0.103,0.294-0.158
					c0.175-0.1,0.345-0.208,0.514-0.319c0.073-0.048,0.149-0.094,0.22-0.144c0.035-0.024,0.072-0.045,0.106-0.069
					c0-0.004,0-0.007,0-0.011C447.222,335.805,448.753,333.354,449.065,330.49z"/>
				<path style="opacity:0.7;fill:#FFFFFF;" d="M246.462,278.129l0.861-0.932l-12.322,1.395c-4.676,0.529-8.759,3.409-10.827,7.636
					l-2.425,4.957l6.169-1.721C235.031,287.48,241.452,283.555,246.462,278.129z"/>
				<path style="opacity:0.7;fill:#FFFFFF;" d="M222.57,309.113c-0.195,2.613-1.373,4.655-2.63,4.561
					c-1.258-0.094-2.12-2.288-1.925-4.901c0.195-2.613,1.373-4.655,2.631-4.561C221.904,304.306,222.765,306.5,222.57,309.113z"/>
				<path style="opacity:0.1;fill:#FFFFFF;" d="M427.975,298.805l-5.376-0.401c-1.331-0.099-2.33-1.259-2.23-2.59l0.401-5.376
					c0.099-1.331,1.259-2.33,2.59-2.23l5.376,0.401c1.331,0.099,2.33,1.259,2.23,2.59l-0.401,5.376
					C430.465,297.905,429.306,298.904,427.975,298.805z"/>
				<path style="fill:#263238;" d="M400.747,261.383c-1.884-3.724-5.579-6.191-9.741-6.501l-54.352-4.055
					c-11.369-0.848-16.034,2.253-26.256,9.048l-17.342,11.51c-2.513,1.668-1.423,5.578,1.591,5.704l116.511,4.879L400.747,261.383z"
					/>
				<path style="opacity:0.3;fill:#FFFFFF;" d="M400.747,261.383c-1.884-3.724-5.579-6.191-9.741-6.501l-54.352-4.055
					c-11.369-0.848-16.034,2.253-26.256,9.048l-17.342,11.51c-2.513,1.668-1.423,5.578,1.591,5.704l116.511,4.879L400.747,261.383z"
					/>
				<path style="fill:#263238;" d="M451.027,281.418l-7.979-18.181c-0.764-1.74-1.793-3.312-3.017-4.689
					c-0.04-0.003-0.079-0.014-0.119-0.017l-32.275-2.408l17.621,22.474c2.038,2.6,5.113,4.176,8.414,4.315l18.177,1.053
					C451.645,283.096,451.388,282.24,451.027,281.418z"/>
				<path style="opacity:0.3;fill:#FFFFFF;" d="M451.027,281.418l-7.979-18.181c-0.764-1.74-1.793-3.312-3.017-4.689
					c-0.04-0.003-0.079-0.014-0.119-0.017l-32.275-2.408l17.621,22.474c2.038,2.6,5.113,4.176,8.414,4.315l18.177,1.053
					C451.645,283.096,451.388,282.24,451.027,281.418z"/>
				<path style="fill:#263238;" d="M283.294,270.084l33.424-22.384c-6.372,1.701-12.472,4.427-18.043,8.124l-23.144,15.359
					l2.988,0.189C280.21,271.479,281.888,271.027,283.294,270.084z"/>
				<path style="opacity:0.3;fill:#FFFFFF;" d="M283.294,270.084l33.424-22.384c-6.372,1.701-12.472,4.427-18.043,8.124
					l-23.144,15.359l2.988,0.189C280.21,271.479,281.888,271.027,283.294,270.084z"/>
				<path style="opacity:0.7;fill:#FFFFFF;" d="M344.95,287.416l-10.251-0.765c-0.719-0.054-1.259-0.68-1.205-1.399l0.023-0.315
					c0.054-0.719,0.68-1.259,1.399-1.205l10.251,0.765c0.719,0.054,1.259,0.68,1.205,1.399l-0.023,0.315
					C346.296,286.93,345.67,287.47,344.95,287.416z"/>
				<path style="opacity:0.7;fill:#FFFFFF;" d="M410.25,290.165L400,289.4c-0.719-0.054-1.259-0.68-1.205-1.399l0.023-0.315
					c0.054-0.719,0.68-1.259,1.399-1.205l10.251,0.765c0.719,0.054,1.259,0.68,1.205,1.399l-0.023,0.315
					C411.596,289.679,410.97,290.218,410.25,290.165z"/>
				<path style="opacity:0.7;fill:#FFFFFF;" d="M445.267,290.835l5.845,12.445l1.11-14.88c0.031-0.42,0.022-0.84,0.017-1.26
					l-4.211-0.314C445.877,286.665,444.35,288.882,445.267,290.835z"/>
				<path style="fill:#263238;" d="M335.382,245.708c4.152-1.724,8.694-2.464,13.224-2.045l25.848,2.292l-0.481,2.597l3.374,0.252
					l0.472-2.55l34.027,3.017c3.559,0.316,6.974,1.289,10.105,2.86l6.043,0.451c0.333,0.025,0.663,0.065,0.991,0.108
					c-4.834-3.872-10.638-6.219-16.842-6.769l-63.239-5.608c-7.173-0.637-14.353,1.214-20.282,5.202l-0.408,0.274
					C330.59,245.623,332.983,245.594,335.382,245.708z"/>
				<path style="opacity:0.5;fill:#FFFFFF;" d="M335.382,245.708c4.152-1.724,8.694-2.464,13.224-2.045l25.848,2.292l-0.481,2.597
					l3.374,0.252l0.472-2.55l34.027,3.017c3.559,0.316,6.974,1.289,10.105,2.86l6.043,0.451c0.333,0.025,0.663,0.065,0.991,0.108
					c-4.834-3.872-10.638-6.219-16.842-6.769l-63.239-5.608c-7.173-0.637-14.353,1.214-20.282,5.202l-0.408,0.274
					C330.59,245.623,332.983,245.594,335.382,245.708z"/>
				<g style="opacity:0.3;">
					<path style="fill:#FFFFFF;" d="M287.785,279.952c-0.673,9.025-1.347,18.051-2.02,27.076c-0.064,0.863,1.277,0.965,1.341,0.1
						c0.673-9.025,1.347-18.051,2.02-27.076C289.191,279.189,287.85,279.087,287.785,279.952L287.785,279.952z"/>
				</g>
				<g style="opacity:0.3;">
					<path style="fill:#FFFFFF;" d="M349.489,283.431c-2.041,12.295-4.083,24.591-6.124,36.886c-0.142,0.854,1.201,0.948,1.341,0.1
						c2.041-12.295,4.083-24.591,6.124-36.886C350.972,282.677,349.63,282.582,349.489,283.431L349.489,283.431z"/>
				</g>
				<g style="opacity:0.3;">
					<path style="fill:#FFFFFF;" d="M414.544,287.16c-0.648,4.955-1.297,9.91-1.945,14.864c-0.112,0.859,1.229,0.956,1.341,0.1
						c0.648-4.955,1.297-9.91,1.945-14.864C415.998,286.401,414.656,286.303,414.544,287.16L414.544,287.16z"/>
				</g>
				<path style="opacity:0.1;fill:#FFFFFF;" d="M382.597,280.772l11.426-25.266c-0.962-0.334-1.975-0.547-3.017-0.625l-2.148-0.16
					l-11.679,25.824L382.597,280.772z"/>
				<g style="opacity:0.1;">
					<path style="fill:#FFFFFF;" d="M348.304,279.336l6.161-13.623l1.006-13.483l-18.816-1.404c-0.629-0.047-1.229-0.077-1.819-0.1
						l-12.447,27.524L348.304,279.336z"/>
					<path style="fill:#FFFFFF;" d="M400.747,261.383c-0.853-1.687-2.092-3.098-3.563-4.185l-10.734,23.736l24.708,1.035
						L400.747,261.383z"/>
				</g>
				<polygon style="fill:#263238;" points="346.78,279.272 354.698,279.604 359.684,252.545 351.814,251.958 				"/>
			</g>
			<g>
				
					<ellipse transform="matrix(0.7578 -0.6525 0.6525 0.7578 -150.5616 245.4359)" style="fill:#263238;" cx="255.284" cy="325.502" rx="22.643" ry="22.643"/>
				
					<ellipse transform="matrix(0.5427 -0.8399 0.8399 0.5427 -156.6556 363.2753)" style="opacity:0.5;fill:#FFFFFF;" cx="255.284" cy="325.502" rx="14.142" ry="14.142"/>
				<g style="opacity:0.3;">
					<path d="M257.32,321.442c0.004,0.002,0.008,0.004,0.012,0.006c0.382,0.194,0.837,0.165,1.187-0.083l4.189-2.974
						c0.607-0.431,0.665-1.33,0.096-1.81c-1.363-1.151-2.998-1.998-4.81-2.428c-0.727-0.173-1.421,0.407-1.406,1.154l0.098,5.134
						C256.695,320.867,256.94,321.25,257.32,321.442z"/>
					<path d="M253.86,321.189c0.004-0.001,0.009-0.003,0.013-0.004c0.404-0.133,0.703-0.476,0.774-0.896l0.859-5.063
						c0.125-0.736-0.475-1.412-1.219-1.349c-1.855,0.156-3.598,0.751-5.117,1.687c-0.634,0.391-0.71,1.288-0.173,1.805l3.702,3.562
						C253.007,321.229,253.453,321.325,253.86,321.189z"/>
					<path d="M251.225,323.466c0.002-0.004,0.004-0.008,0.006-0.012c0.194-0.382,0.165-0.837-0.083-1.187l-2.974-4.189
						c-0.431-0.607-1.33-0.665-1.81-0.096c-1.151,1.363-1.997,2.998-2.428,4.81c-0.173,0.727,0.407,1.42,1.154,1.406l5.134-0.098
						C250.65,324.09,251.033,323.846,251.225,323.466z"/>
					<path d="M263.417,319.215l-3.562,3.701c-0.297,0.309-0.393,0.755-0.258,1.161c0.001,0.004,0.003,0.009,0.004,0.013
						c0.133,0.404,0.476,0.703,0.896,0.774l5.063,0.859c0.736,0.125,1.412-0.475,1.349-1.219c-0.156-1.855-0.751-3.598-1.687-5.117
						C264.831,318.754,263.933,318.678,263.417,319.215z"/>
					<path d="M256.708,329.814c-0.004,0.001-0.009,0.003-0.013,0.004c-0.404,0.133-0.703,0.476-0.774,0.896l-0.859,5.063
						c-0.125,0.736,0.475,1.412,1.219,1.349c1.855-0.157,3.598-0.751,5.117-1.687c0.634-0.391,0.71-1.288,0.173-1.805l-3.701-3.562
						C257.561,329.775,257.115,329.678,256.708,329.814z"/>
					<path d="M250.972,326.926c-0.001-0.004-0.003-0.009-0.004-0.013c-0.133-0.404-0.476-0.703-0.896-0.774l-5.062-0.859
						c-0.736-0.125-1.412,0.475-1.349,1.219c0.156,1.855,0.751,3.598,1.687,5.116c0.391,0.634,1.288,0.71,1.804,0.173l3.562-3.701
						C251.011,327.779,251.107,327.332,250.972,326.926z"/>
					<path d="M259.344,327.538c-0.002,0.004-0.004,0.008-0.006,0.012c-0.194,0.382-0.165,0.837,0.083,1.187l2.974,4.189
						c0.431,0.607,1.33,0.665,1.81,0.096c1.151-1.363,1.998-2.998,2.428-4.81c0.172-0.727-0.407-1.42-1.154-1.406l-5.134,0.098
						C259.918,326.913,259.535,327.158,259.344,327.538z"/>
					<path d="M253.248,329.561c-0.004-0.002-0.008-0.004-0.012-0.006c-0.382-0.194-0.837-0.165-1.187,0.083l-4.189,2.974
						c-0.607,0.431-0.665,1.33-0.096,1.81c1.363,1.152,2.998,1.998,4.81,2.428c0.727,0.173,1.421-0.407,1.406-1.154l-0.098-5.134
						C253.873,330.136,253.628,329.753,253.248,329.561z"/>
				</g>
			</g>
			<g>
				
					<ellipse transform="matrix(0.7578 -0.6525 0.6525 0.7578 -119.966 351.4341)" style="fill:#263238;" cx="413.346" cy="337.293" rx="22.643" ry="22.643"/>
				
					<ellipse transform="matrix(0.9479 -0.3186 0.3186 0.9479 -85.9191 149.2613)" style="opacity:0.5;fill:#FFFFFF;" cx="413.346" cy="337.293" rx="14.142" ry="14.142"/>
				<g style="opacity:0.3;">
					<path d="M415.382,333.234c0.004,0.002,0.008,0.004,0.012,0.006c0.382,0.194,0.837,0.165,1.187-0.083l4.189-2.974
						c0.607-0.431,0.665-1.33,0.096-1.81c-1.363-1.151-2.998-1.998-4.81-2.428c-0.727-0.173-1.421,0.407-1.406,1.154l0.098,5.134
						C414.757,332.659,415.001,333.042,415.382,333.234z"/>
					<path d="M411.921,332.981c0.004-0.001,0.009-0.003,0.013-0.004c0.404-0.133,0.703-0.476,0.774-0.896l0.859-5.063
						c0.125-0.736-0.475-1.412-1.219-1.349c-1.855,0.157-3.598,0.751-5.117,1.687c-0.634,0.391-0.71,1.288-0.173,1.805l3.701,3.562
						C411.069,333.02,411.515,333.116,411.921,332.981z"/>
					<path d="M409.286,335.257c0.002-0.004,0.004-0.008,0.006-0.012c0.194-0.382,0.165-0.837-0.083-1.187l-2.974-4.189
						c-0.431-0.607-1.33-0.665-1.81-0.096c-1.151,1.363-1.997,2.998-2.427,4.81c-0.173,0.727,0.407,1.421,1.154,1.406l5.134-0.098
						C408.711,335.882,409.094,335.637,409.286,335.257z"/>
					<path d="M421.478,331.006l-3.562,3.701c-0.297,0.309-0.393,0.755-0.258,1.161c0.001,0.004,0.003,0.009,0.004,0.013
						c0.133,0.404,0.476,0.703,0.896,0.774l5.063,0.859c0.736,0.125,1.412-0.475,1.349-1.219c-0.156-1.855-0.751-3.598-1.687-5.117
						C422.892,330.546,421.994,330.47,421.478,331.006z"/>
					<path d="M414.77,341.605c-0.004,0.002-0.009,0.003-0.013,0.004c-0.404,0.133-0.703,0.476-0.774,0.896l-0.859,5.063
						c-0.125,0.736,0.475,1.412,1.219,1.349c1.855-0.157,3.598-0.751,5.117-1.687c0.634-0.391,0.71-1.288,0.173-1.805l-3.701-3.562
						C415.622,341.566,415.176,341.47,414.77,341.605z"/>
					<path d="M409.033,338.717c-0.001-0.004-0.003-0.009-0.004-0.013c-0.134-0.404-0.476-0.703-0.896-0.774l-5.062-0.859
						c-0.736-0.125-1.412,0.475-1.349,1.219c0.156,1.855,0.751,3.598,1.687,5.117c0.391,0.634,1.288,0.709,1.805,0.173l3.562-3.701
						C409.073,339.57,409.169,339.124,409.033,338.717z"/>
					<path d="M417.405,339.329c-0.002,0.004-0.004,0.008-0.006,0.012c-0.194,0.382-0.165,0.837,0.083,1.187l2.974,4.189
						c0.431,0.607,1.33,0.665,1.81,0.097c1.151-1.363,1.998-2.998,2.428-4.81c0.173-0.727-0.407-1.42-1.154-1.406l-5.134,0.098
						C417.98,338.704,417.597,338.949,417.405,339.329z"/>
					<path d="M411.309,341.352c-0.004-0.002-0.008-0.004-0.012-0.006c-0.382-0.194-0.837-0.165-1.187,0.083l-4.189,2.974
						c-0.607,0.431-0.665,1.33-0.096,1.81c1.363,1.151,2.998,1.998,4.81,2.428c0.727,0.173,1.42-0.407,1.406-1.154l-0.098-5.134
						C411.934,341.927,411.69,341.544,411.309,341.352z"/>
				</g>
			</g>
		</g>
		<g>
			<path style="fill:#407BFF;" d="M250.36,335.411l0.8,0.361c0.449,0.202,0.609,0.76,0.336,1.169l-7.787,11.665l-2.841-1.474
				l8.525-11.469C249.616,335.362,250.018,335.258,250.36,335.411z"/>
			<path style="fill:#407BFF;" d="M258.186,335.995l-0.845,0.238c-0.474,0.133-0.715,0.661-0.505,1.106l5.97,12.691l3.028-1.036
				l-6.729-12.607C258.929,336.057,258.547,335.894,258.186,335.995z"/>
		</g>
		<g style="opacity:0.5;">
			<path style="fill:#FFFFFF;" d="M250.36,335.411l0.8,0.361c0.449,0.202,0.609,0.76,0.336,1.169l-7.787,11.665l-2.841-1.474
				l8.525-11.469C249.616,335.362,250.018,335.258,250.36,335.411z"/>
			<path style="fill:#FFFFFF;" d="M258.186,335.995l-0.845,0.238c-0.474,0.133-0.715,0.661-0.505,1.106l5.97,12.691l3.028-1.036
				l-6.729-12.607C258.929,336.057,258.547,335.894,258.186,335.995z"/>
		</g>
		<g>
			<path style="fill:#407BFF;" d="M408.915,347.24l0.801,0.361c0.449,0.202,0.609,0.759,0.335,1.169l-7.787,11.665l-2.841-1.474
				l8.526-11.469C408.171,347.19,408.573,347.086,408.915,347.24z"/>
			<path style="fill:#407BFF;" d="M416.741,347.823l-0.845,0.238c-0.474,0.133-0.715,0.661-0.505,1.107l5.971,12.691l3.028-1.036
				l-6.729-12.608C417.484,347.885,417.101,347.722,416.741,347.823z"/>
		</g>
		<g style="opacity:0.5;">
			<path style="fill:#FFFFFF;" d="M408.915,347.24l0.801,0.361c0.449,0.202,0.609,0.759,0.335,1.169l-7.787,11.665l-2.841-1.474
				l8.526-11.469C408.171,347.19,408.573,347.086,408.915,347.24z"/>
			<path style="fill:#FFFFFF;" d="M416.741,347.823l-0.845,0.238c-0.474,0.133-0.715,0.661-0.505,1.107l5.971,12.691l3.028-1.036
				l-6.729-12.608C417.484,347.885,417.101,347.722,416.741,347.823z"/>
		</g>
	</g>
</g>
<g id="Towing">
	<g>
		<rect x="283.752" y="348.087" style="fill:#263238;" width="98.224" height="34.152"/>
		<rect x="283.752" y="348.087" style="opacity:0.3;fill:#FFFFFF;" width="98.224" height="34.152"/>
	</g>
	<g>
		<polygon style="fill:#263238;" points="173.15,357.16 173.15,340.198 108.098,340.198 108.098,382.24 197.384,382.24 
			197.384,357.16 		"/>
		<polygon style="opacity:0.3;fill:#FFFFFF;" points="173.15,357.16 173.15,340.198 108.098,340.198 108.098,382.24 197.384,382.24 
			197.384,357.16 		"/>
	</g>
	<circle style="fill:#263238;" cx="343.594" cy="385.317" r="30.192"/>
	
		<ellipse transform="matrix(0.7071 -0.7071 0.7071 0.7071 -171.8237 355.8146)" style="opacity:0.5;fill:#FFFFFF;" cx="343.594" cy="385.317" rx="17.635" ry="17.635"/>
	<g style="opacity:0.5;">
		<path style="fill:#FFFFFF;" d="M332.508,383.04c0.293-1.433,0.858-2.766,1.637-3.946c0.36-0.546,0.335-1.257-0.082-1.761
			l-0.001-0.001c-0.628-0.759-1.816-0.701-2.361,0.12c-0.991,1.495-1.707,3.188-2.077,5.007c-0.197,0.969,0.598,1.857,1.583,1.764
			l0,0C331.855,384.162,332.377,383.679,332.508,383.04z"/>
		<path style="fill:#FFFFFF;" d="M337.372,375.867c1.18-0.779,2.513-1.344,3.946-1.637c0.638-0.131,1.122-0.652,1.182-1.301v0
			c0.092-0.985-0.795-1.78-1.764-1.582c-1.819,0.37-3.512,1.086-5.007,2.077c-0.821,0.544-0.879,1.732-0.12,2.361l0.001,0.001
			C336.114,376.203,336.826,376.228,337.372,375.867z"/>
		<path style="fill:#FFFFFF;" d="M353.127,377.332l-0.001,0.001c-0.417,0.504-0.442,1.215-0.082,1.761
			c0.779,1.18,1.344,2.513,1.637,3.946c0.131,0.638,0.652,1.122,1.301,1.182h0c0.985,0.092,1.78-0.795,1.583-1.764
			c-0.37-1.819-1.087-3.512-2.078-5.007C354.943,376.63,353.755,376.573,353.127,377.332z"/>
		<path style="fill:#FFFFFF;" d="M345.871,374.23c1.433,0.293,2.766,0.858,3.946,1.637c0.546,0.36,1.258,0.335,1.761-0.082
			l0.001-0.001c0.759-0.628,0.701-1.816-0.12-2.361c-1.495-0.991-3.188-1.707-5.007-2.077c-0.969-0.197-1.857,0.598-1.764,1.582v0
			C344.749,373.578,345.233,374.1,345.871,374.23z"/>
		<path style="fill:#FFFFFF;" d="M341.318,396.404c-1.433-0.293-2.766-0.858-3.946-1.637c-0.546-0.36-1.258-0.335-1.761,0.082
			l-0.001,0.001c-0.759,0.628-0.701,1.816,0.12,2.361c1.495,0.991,3.188,1.707,5.007,2.078c0.969,0.197,1.857-0.598,1.764-1.583v0
			C342.439,397.056,341.956,396.534,341.318,396.404z"/>
		<path style="fill:#FFFFFF;" d="M354.681,387.593c-0.293,1.433-0.858,2.766-1.637,3.946c-0.36,0.546-0.335,1.258,0.082,1.761
			l0.001,0.001c0.628,0.759,1.816,0.701,2.36-0.12c0.991-1.495,1.707-3.188,2.078-5.007c0.197-0.969-0.598-1.857-1.583-1.764h0
			C355.333,386.472,354.812,386.955,354.681,387.593z"/>
		<path style="fill:#FFFFFF;" d="M334.145,391.539c-0.779-1.18-1.344-2.513-1.637-3.946c-0.131-0.638-0.652-1.122-1.301-1.183h0
			c-0.985-0.092-1.78,0.795-1.582,1.764c0.37,1.819,1.086,3.512,2.077,5.007c0.544,0.821,1.732,0.879,2.36,0.12l0.001-0.001
			C334.48,392.797,334.505,392.085,334.145,391.539z"/>
		<path style="fill:#FFFFFF;" d="M349.817,394.767c-1.18,0.779-2.513,1.344-3.946,1.637c-0.638,0.131-1.122,0.652-1.183,1.301v0
			c-0.092,0.985,0.795,1.78,1.764,1.583c1.819-0.37,3.512-1.087,5.007-2.078c0.821-0.544,0.879-1.732,0.12-2.361l-0.001-0.001
			C351.075,394.431,350.363,394.406,349.817,394.767z"/>
	</g>
	<path style="fill:#407BFF;" d="M378.763,344.598H211.96V300.68l-6.247-44.247h-27.589v91.618l13.014,38.354h118.056
		c-0.011-0.362-0.027-0.723-0.027-1.087c0-19.014,15.414-34.429,34.429-34.429c19.014,0,34.429,15.414,34.429,34.429
		c0,0.365-0.016,0.725-0.028,1.087h6.526l72.777-3.314v-11.423L378.763,344.598z"/>
	<g style="opacity:0.9;">
		<rect x="211.613" y="349.265" style="fill:#FFFFFF;" width="4.56" height="4.56"/>
		<rect x="216.172" y="353.68" style="fill:#FFFFFF;" width="4.56" height="4.56"/>
		<rect x="220.732" y="349.265" style="fill:#FFFFFF;" width="4.56" height="4.56"/>
		<rect x="225.292" y="353.68" style="fill:#FFFFFF;" width="4.56" height="4.56"/>
		<rect x="229.851" y="349.265" style="fill:#FFFFFF;" width="4.56" height="4.56"/>
		<rect x="234.411" y="353.68" style="fill:#FFFFFF;" width="4.56" height="4.56"/>
		<rect x="238.971" y="349.265" style="fill:#FFFFFF;" width="4.56" height="4.56"/>
		<rect x="243.53" y="353.68" style="fill:#FFFFFF;" width="4.56" height="4.56"/>
		<rect x="248.09" y="349.265" style="fill:#FFFFFF;" width="4.56" height="4.56"/>
		<rect x="252.649" y="353.68" style="fill:#FFFFFF;" width="4.56" height="4.56"/>
		<rect x="257.209" y="349.265" style="fill:#FFFFFF;" width="4.56" height="4.56"/>
		<rect x="261.769" y="353.68" style="fill:#FFFFFF;" width="4.56" height="4.56"/>
		<rect x="266.328" y="349.265" style="fill:#FFFFFF;" width="4.56" height="4.56"/>
		<rect x="270.888" y="353.68" style="fill:#FFFFFF;" width="4.56" height="4.56"/>
		<rect x="275.448" y="349.265" style="fill:#FFFFFF;" width="4.56" height="4.56"/>
		<rect x="280.007" y="353.68" style="fill:#FFFFFF;" width="4.56" height="4.56"/>
		<rect x="284.567" y="349.265" style="fill:#FFFFFF;" width="4.56" height="4.56"/>
		<rect x="289.126" y="353.68" style="fill:#FFFFFF;" width="4.56" height="4.56"/>
		<rect x="293.686" y="349.265" style="fill:#FFFFFF;" width="4.56" height="4.56"/>
		<rect x="298.246" y="353.68" style="fill:#FFFFFF;" width="4.56" height="4.56"/>
		<rect x="302.805" y="349.265" style="fill:#FFFFFF;" width="4.56" height="4.56"/>
		<rect x="307.365" y="353.68" style="fill:#FFFFFF;" width="4.56" height="4.56"/>
		<rect x="311.924" y="349.265" style="fill:#FFFFFF;" width="4.56" height="4.56"/>
		<rect x="364.352" y="349.265" style="fill:#FFFFFF;" width="4.56" height="4.56"/>
		<rect x="368.912" y="353.68" style="fill:#FFFFFF;" width="4.56" height="4.56"/>
		<rect x="373.471" y="349.265" style="fill:#FFFFFF;" width="4.56" height="4.56"/>
		<rect x="378.031" y="353.68" style="fill:#FFFFFF;" width="4.56" height="4.56"/>
		<rect x="382.591" y="349.265" style="fill:#FFFFFF;" width="4.56" height="4.56"/>
		<rect x="387.15" y="353.68" style="fill:#FFFFFF;" width="4.56" height="4.56"/>
	</g>
	<path style="opacity:0.5;fill:#FFFFFF;" d="M254.849,376.797h-9.547c-1.164,0-2.108-0.944-2.108-2.108v-9.999
		c0-1.164,0.944-2.108,2.108-2.108h9.547c1.414,0,2.56,1.146,2.56,2.56v9.096C257.409,375.651,256.263,376.797,254.849,376.797z"/>
	<path style="opacity:0.2;" d="M254.975,369.69c0-0.861-0.698-1.558-1.558-1.558c-0.861,0-1.558,0.698-1.558,1.558
		c0,0.861,0.698,1.558,1.558,1.558C254.278,371.248,254.975,370.55,254.975,369.69z"/>
	<g>
		<circle style="fill:#263238;" cx="148.972" cy="385.317" r="30.192"/>
		
			<ellipse transform="matrix(0.7071 -0.7071 0.7071 0.7071 -228.8272 218.1961)" style="opacity:0.5;fill:#FFFFFF;" cx="148.972" cy="385.317" rx="17.635" ry="17.635"/>
		<g style="opacity:0.5;">
			<path style="fill:#FFFFFF;" d="M137.886,383.04c0.293-1.433,0.858-2.766,1.637-3.946c0.36-0.546,0.335-1.257-0.082-1.761
				l-0.001-0.001c-0.628-0.759-1.816-0.701-2.36,0.12c-0.991,1.495-1.707,3.188-2.077,5.007c-0.197,0.969,0.598,1.857,1.583,1.764
				l0,0C137.233,384.162,137.755,383.679,137.886,383.04z"/>
			<path style="fill:#FFFFFF;" d="M142.75,375.867c1.18-0.779,2.513-1.344,3.946-1.637c0.638-0.131,1.122-0.652,1.182-1.301v0
				c0.092-0.985-0.795-1.78-1.764-1.582c-1.819,0.37-3.512,1.086-5.007,2.077c-0.821,0.544-0.878,1.732-0.12,2.361l0.001,0.001
				C141.492,376.203,142.204,376.228,142.75,375.867z"/>
			<path style="fill:#FFFFFF;" d="M158.505,377.332l-0.001,0.001c-0.417,0.504-0.442,1.215-0.082,1.761
				c0.779,1.18,1.344,2.513,1.637,3.946c0.131,0.638,0.652,1.122,1.301,1.182h0c0.985,0.092,1.78-0.795,1.583-1.764
				c-0.37-1.819-1.086-3.512-2.077-5.007C160.321,376.63,159.133,376.573,158.505,377.332z"/>
			<path style="fill:#FFFFFF;" d="M151.249,374.23c1.433,0.293,2.766,0.858,3.946,1.637c0.546,0.36,1.258,0.335,1.761-0.082
				l0.001-0.001c0.759-0.628,0.701-1.816-0.12-2.361c-1.495-0.991-3.188-1.707-5.007-2.077c-0.969-0.197-1.857,0.598-1.764,1.582v0
				C150.127,373.578,150.611,374.1,151.249,374.23z"/>
			<path style="fill:#FFFFFF;" d="M146.696,396.404c-1.433-0.293-2.766-0.858-3.946-1.637c-0.546-0.36-1.257-0.335-1.761,0.082
				l-0.001,0.001c-0.759,0.628-0.701,1.816,0.12,2.361c1.495,0.991,3.188,1.707,5.007,2.078c0.969,0.197,1.857-0.598,1.764-1.583
				l0,0C147.817,397.056,147.334,396.534,146.696,396.404z"/>
			<path style="fill:#FFFFFF;" d="M160.059,387.593c-0.293,1.433-0.858,2.766-1.637,3.946c-0.36,0.546-0.335,1.258,0.082,1.761
				l0.001,0.001c0.628,0.759,1.816,0.701,2.36-0.12c0.991-1.495,1.707-3.188,2.077-5.007c0.197-0.969-0.598-1.857-1.583-1.764h0
				C160.712,386.472,160.19,386.955,160.059,387.593z"/>
			<path style="fill:#FFFFFF;" d="M139.523,391.539c-0.779-1.18-1.344-2.513-1.637-3.946c-0.131-0.638-0.652-1.122-1.301-1.183h0
				c-0.984-0.092-1.78,0.795-1.582,1.764c0.37,1.819,1.086,3.512,2.077,5.007c0.544,0.821,1.732,0.879,2.361,0.12l0.001-0.001
				C139.858,392.797,139.883,392.085,139.523,391.539z"/>
			<path style="fill:#FFFFFF;" d="M155.195,394.767c-1.18,0.779-2.513,1.344-3.946,1.637c-0.638,0.131-1.122,0.652-1.182,1.301v0
				c-0.092,0.985,0.795,1.78,1.764,1.583c1.819-0.37,3.512-1.087,5.007-2.078c0.821-0.544,0.879-1.732,0.12-2.361l-0.001-0.001
				C156.453,394.431,155.741,394.406,155.195,394.767z"/>
		</g>
	</g>
	<g>
		<g>
			<rect x="72.255" y="309.659" style="fill:#263238;" width="1.822" height="9.677"/>
			<rect x="72.255" y="309.659" style="opacity:0.6;" width="1.822" height="9.677"/>
		</g>
		<path style="fill:#407BFF;" d="M120.314,360.378l11.452-8.833l11.362-2.28h24.064v0h8.009v-83.279
			c0-5.276-4.277-9.554-9.554-9.554h-56.302c-6.923,0-13.089,4.379-15.37,10.916l-12.86,36.86c-1.83,5.245-2.765,10.76-2.765,16.315
			v61.717h26.911L120.314,360.378z"/>
		<g>
			<path style="fill:#407BFF;" d="M79.021,349.265H78.39c-1.555,0-2.816-1.261-2.816-2.816v-12.5c0-1.555,1.261-2.816,2.816-2.816
				h0.631c1.834,0,3.32,1.487,3.32,3.32v11.492C82.341,347.778,80.855,349.265,79.021,349.265z"/>
			<path style="opacity:0.8;fill:#FFFFFF;" d="M79.021,349.265H78.39c-1.555,0-2.816-1.261-2.816-2.816v-12.5
				c0-1.555,1.261-2.816,2.816-2.816h0.631c1.834,0,3.32,1.487,3.32,3.32v11.492C82.341,347.778,80.855,349.265,79.021,349.265z"/>
		</g>
		<path style="fill:#263238;" d="M154.452,335.603h-0.14c-0.942,0-1.705-0.763-1.705-1.705v-9c0-0.942,0.763-1.705,1.705-1.705h0.14
			c0.942,0,1.705,0.763,1.705,1.705v9C156.157,334.84,155.393,335.603,154.452,335.603z"/>
		<path style="fill:#407BFF;" d="M78.224,324.345l-5.501-2.456c-0.641-0.286-1.053-0.922-1.053-1.624v-1.409
			c0-0.982,0.796-1.779,1.779-1.779h5.578c1.088,0,1.969,0.882,1.969,1.97v3.5C80.996,323.973,79.527,324.926,78.224,324.345z"/>
		<path style="fill:#263238;" d="M151.396,301.72h2.218c3.297,0,5.97-2.673,5.97-5.97v-29.764c0-1.252-1.015-2.266-2.266-2.266
			h-47.973c-3.824,0-7.229,2.419-8.489,6.029l-12.86,36.86c-0.172,0.492-0.334,1.054-0.487,1.665
			c-1.467,5.854,4.139,11.004,9.834,9.006l35.178-12.343C138.586,302.808,144.968,301.72,151.396,301.72z"/>
		<path style="opacity:0.5;fill:#FFFFFF;" d="M151.396,301.72h2.218c3.297,0,5.97-2.673,5.97-5.97v-29.764
			c0-1.252-1.015-2.266-2.266-2.266h-47.973c-3.824,0-7.229,2.419-8.489,6.029l-12.86,36.86c-0.172,0.492-0.334,1.054-0.487,1.665
			c-1.467,5.854,4.139,11.004,9.834,9.006l35.178-12.343C138.586,302.808,144.968,301.72,151.396,301.72z"/>
		<path style="fill:#407BFF;" d="M174.054,345.101h-30.551c-11.592,0-22.296,6.212-28.046,16.278L103.54,382.24h9.592l9.557-16.73
			c4.267-7.47,12.211-12.081,20.814-12.081h30.55c1.209,0,2.188-0.98,2.188-2.189v-3.952
			C176.242,346.08,175.262,345.101,174.054,345.101z"/>
		<path style="opacity:0.4;fill:#FFFFFF;" d="M174.054,345.101h-30.551c-11.592,0-22.296,6.212-28.046,16.278L103.54,382.24h9.592
			l9.557-16.73c4.267-7.47,12.211-12.081,20.814-12.081h30.55c1.209,0,2.188-0.98,2.188-2.189v-3.952
			C176.242,346.08,175.262,345.101,174.054,345.101z"/>
		<g>
			<path style="fill:#263238;" d="M83.893,377.635h-7.876c-1.107,0-2.005-0.898-2.005-2.005v-7.876c0-1.107,0.898-2.005,2.005-2.005
				h7.876c1.107,0,2.005,0.898,2.005,2.005v7.876C85.898,376.737,85.001,377.635,83.893,377.635z"/>
			<path style="opacity:0.7;fill:#FFFFFF;" d="M83.893,377.635h-7.876c-1.107,0-2.005-0.898-2.005-2.005v-7.876
				c0-1.107,0.898-2.005,2.005-2.005h7.876c1.107,0,2.005,0.898,2.005,2.005v7.876C85.898,376.737,85.001,377.635,83.893,377.635z"
				/>
		</g>
		<g>
			<path style="fill:#263238;" d="M108.624,386.404H74.652c-1.216,0-2.202-0.986-2.202-2.202v-5.882
				c0-1.216,0.986-2.202,2.202-2.202h39.929c1.157,0,1.869,1.265,1.268,2.254l-3.659,6.024
				C111.434,385.643,110.082,386.404,108.624,386.404z"/>
			<path style="opacity:0.6;fill:#FFFFFF;" d="M108.624,386.404H74.652c-1.216,0-2.202-0.986-2.202-2.202v-5.882
				c0-1.216,0.986-2.202,2.202-2.202h39.929c1.157,0,1.869,1.265,1.268,2.254l-3.659,6.024
				C111.434,385.643,110.082,386.404,108.624,386.404z"/>
		</g>
		<path style="fill:#263238;" d="M73.163,312.132h-0.226c-2.029,0-3.675-1.645-3.675-3.675v-13.473c0-2.03,1.645-3.675,3.675-3.675
			h0.226c1.008,0,1.825,0.817,1.825,1.825v17.172C74.988,311.315,74.171,312.132,73.163,312.132z"/>
		<g style="opacity:0.3;">
			<path d="M86.491,319.757c0,14.882,0,29.764,0,44.647c0,1.005,1.562,1.007,1.562,0c0-14.882,0-29.764,0-44.647
				C88.053,318.752,86.491,318.751,86.491,319.757L86.491,319.757z"/>
		</g>
		<g style="opacity:0.3;">
			<path d="M158.803,304.244c0,12.332,0,24.663,0,36.995c0,1.005,1.562,1.007,1.562,0c0-12.332,0-24.663,0-36.995
				C160.365,303.239,158.803,303.237,158.803,304.244L158.803,304.244z"/>
		</g>
		<g style="opacity:0.2;">
			<polygon style="fill:#FFFFFF;" points="122.076,263.72 117.103,263.72 97.566,317.201 103.27,315.199 			"/>
			<polygon style="fill:#FFFFFF;" points="141.133,263.72 125.999,263.72 107.77,313.62 125.128,307.53 			"/>
		</g>
	</g>
</g>
<g id="Character">
	<g>
		<g>
			<polygon style="fill:#FFC3BD;" points="218.804,403.768 221.247,412.629 225.222,412.629 223.738,402.666 			"/>
			<path style="fill:#263238;" d="M225.322,411.809l-4.494,0.095c-0.196,0.004-0.363,0.142-0.402,0.334l-0.861,4.242
				c-0.079,0.376,0.161,0.744,0.537,0.824c0.048,0.01,0.097,0.015,0.147,0.015c1.871-0.067,3.534-0.2,5.864-0.239
				c2.75-0.049,2.058,0.292,5.292,0.279c1.949-0.01,2.265-2.231,1.437-2.325c-3.789-0.407-4.901-1.541-6.384-2.868
				C226.135,411.912,225.732,411.785,225.322,411.809z"/>
			<polygon style="opacity:0.2;" points="224.85,410.132 223.738,402.666 218.804,403.768 220.635,410.407 			"/>
			<path style="fill:#263238;" d="M214.494,325.936l10.729,81.232l-6.035,0.575c0,0-7.148-25.748-8.51-34.535
				c-0.244-1.577-0.709-4.799-0.995-6.369c-0.33-1.813-1.182-5.242-1.726-7.003c-1.036-3.356-3.9-13.495-3.9-13.495l-4.32-17.53
				L214.494,325.936z"/>
			<path style="opacity:0.5;" d="M202.329,332.979l-0.733,3.373l2.462,9.99c0,0,1.291,4.57,2.453,8.59
				c0.53-17.262-2.32-21.953-2.32-21.953H202.329z"/>
			<polygon style="fill:#407BFF;" points="217.881,406.017 218.68,409.056 225.979,408.248 225.797,405.049 			"/>
		</g>
		<g>
			<polygon style="fill:#FFC3BD;" points="195.622,403.348 196.656,412.48 200.594,412.524 200.666,403.027 			"/>
			<polygon style="opacity:0.2;" points="200.666,403.027 195.622,403.348 196.43,410.481 200.61,410.452 			"/>
			<path style="fill:#263238;" d="M205.865,326.841l-4.502,81.36l-6.052,0.064c0,0-2.442-26.61-2.215-35.499
				c0.041-1.595,0.158-4.848,0.157-6.444c-0.001-1.843-0.228-5.369-0.449-7.198c-0.421-3.487-1.609-14.49-1.927-18.008
				c-0.406-4.486-0.628-13.986-0.628-13.986L205.865,326.841z"/>
			<polygon style="fill:#407BFF;" points="194.142,405.708 194.656,408.808 201.988,408.7 202.315,405.495 			"/>
			<path style="fill:#263238;" d="M200.777,411.809l-4.494,0.095c-0.196,0.004-0.363,0.142-0.402,0.334l-0.861,4.242
				c-0.079,0.376,0.161,0.744,0.537,0.824c0.048,0.01,0.097,0.015,0.147,0.015c1.871-0.067,3.534-0.2,5.864-0.239
				c2.75-0.049,2.058,0.292,5.292,0.279c1.949-0.01,2.265-2.231,1.437-2.325c-3.789-0.407-4.901-1.541-6.384-2.868
				C201.59,411.912,201.187,411.785,200.777,411.809z"/>
		</g>
		<path style="fill:#FFC3BD;" d="M224.028,293.548l11.608-2.948l2.365-1.794c0.199-0.151,0.442-0.233,0.692-0.233h1.738
			c0.119,0,0.237-0.018,0.35-0.055l0.572-0.184c0.827-0.266,1.638,0.451,1.475,1.304l-0.411,2.156
			c-0.09,0.472-0.465,0.838-0.939,0.916l-5.106,0.838l-11.7,4.273L224.028,293.548z"/>
		<path style="fill:#407BFF;" d="M208.794,290.017l14.129,2.778l3.927-0.575l0.671,5.077l-4.119,0.958l-13.602,0.096
			C209.8,298.351,206.447,293.274,208.794,290.017z"/>
		<path style="opacity:0.5;" d="M208.794,290.017l14.129,2.778l3.927-0.575l0.671,5.077l-4.119,0.958l-13.602,0.096
			C209.8,298.351,206.447,293.274,208.794,290.017z"/>
		<polygon style="fill:#407BFF;" points="225.893,291.646 227.138,298.255 229.065,297.323 228,291.646 		"/>
		<polygon style="opacity:0.5;fill:#FFFFFF;" points="225.893,291.646 227.138,298.255 229.065,297.323 228,291.646 		"/>
		<path style="opacity:0.2;" d="M210.336,292.382l-1.015,0.604l0.575,1.964l0.86,3.394l6.985-0.049
			C212.127,297.904,210.336,292.382,210.336,292.382z"/>
		<polygon style="fill:#407BFF;" points="197.382,304.769 206.639,303.715 205.942,290.473 192.837,292.566 		"/>
		<polygon style="opacity:0.4;" points="197.382,304.769 206.639,303.715 205.942,290.473 192.837,292.566 		"/>
		<path style="fill:#407BFF;" d="M208.794,290.017l-5.935,0.948c0.904,4.075-0.531,8.823-0.531,8.823
			c-1.089-3.376-5.478-6.31-7.539-7.534l-6.686,1.068l1.652,36.064c0.043,0.935,0.749,1.702,1.678,1.82
			c4.03,0.513,14.809,1.355,22.625-2.921c0.65-0.356,1.04-1.054,1.002-1.794C214.754,320.489,213.136,293.337,208.794,290.017z"/>
		<path style="opacity:0.5;fill:#FFFFFF;" d="M208.794,290.017l-5.935,0.948c0.904,4.075-0.531,8.823-0.531,8.823
			c-1.089-3.376-5.478-6.31-7.539-7.534l-6.686,1.068l1.652,36.064c0.043,0.935,0.749,1.702,1.678,1.82
			c4.03,0.513,14.809,1.355,22.625-2.921c0.65-0.356,1.04-1.054,1.002-1.794C214.754,320.489,213.136,293.337,208.794,290.017z"/>
		<path style="opacity:0.8;fill:#FFFFFF;" d="M188.56,303.279l0.175,3.816c11.937-0.109,20.319-2.693,24.112-4.151
			c-0.23-1.492-0.48-2.93-0.752-4.276C200.815,302.866,192.094,303.309,188.56,303.279z"/>
		<path style="opacity:0.2;" d="M188.859,309.803c4.491-7.467,1.778-11.977,1.778-11.977l-0.761,0.286l-1.472,1.775L188.859,309.803
			z"/>
		<path style="fill:#FFC3BD;" d="M196.313,292.889c1.146,0.86,2.942,1.882,4.701,1.534c1.639-0.324,1.889-1.541,1.796-2.539
			c-1.6-0.815-2.012-2.611-1.943-4.312l-6.174-3.39C195.645,286.45,196.942,290.405,196.313,292.889z"/>
		<path style="opacity:0.2;enable-background:new    ;" d="M197.209,285.576l3.658,1.987c-0.012,0.523,0.019,1.046,0.095,1.564
			c-1.207,0.074-2.919-0.6-3.645-1.789C196.856,286.614,196.926,285.73,197.209,285.576z"/>
		<path style="fill:#263238;" d="M200.244,280.109c-2.802-1.447-4.49-4.691-4.31-5.444c0.179-0.754,4.35-2.316,4.95-2.043
			c2.991,1.285,1.412,5.409,1.412,5.409l1.089,1.26L200.244,280.109z"/>
		<path style="fill:#FFC3BD;" d="M192.837,280.427c1.249,3.602,1.801,5.77,4.178,7.128c3.573,2.05,7.623-0.906,7.47-4.796
			c-0.14-3.528-2.163-8.806-6.156-9.257c-2.848-0.337-5.43,1.699-5.767,4.548C192.468,278.853,192.562,279.667,192.837,280.427z"/>
		<path style="fill:#263238;" d="M192.794,283.06c-2.646-1.713-4.805-4.57-4.517-5.281c0.769-1.886,3.814-3.42,5.869-2.568
			c3.014,1.227,0.905,6.001,0.905,6.001l0.968,1.373L192.794,283.06z"/>
		<path style="fill:#FFC3BD;" d="M192.006,284.346c0.712,0.64,1.647,0.973,2.603,0.929c1.268-0.077,1.494-1.307,0.798-2.29
			c-0.624-0.882-2.039-1.909-3.146-1.355C191.154,282.183,191.139,283.545,192.006,284.346z"/>
		<path style="fill:#263238;" d="M198.864,279.879c0.085,0.3,0.309,0.498,0.504,0.442s0.284-0.34,0.2-0.64
			c-0.085-0.3-0.309-0.494-0.504-0.438C198.869,279.299,198.78,279.583,198.864,279.879z"/>
		<path style="fill:#263238;" d="M202.233,278.935c0.084,0.296,0.309,0.494,0.504,0.438c0.196-0.056,0.284-0.34,0.2-0.635
			c-0.084-0.295-0.309-0.498-0.504-0.442C202.237,278.352,202.148,278.636,202.233,278.935z"/>
		<path style="fill:#ED847E;" d="M201.014,279.399c0.612,0.81,1.333,1.533,2.142,2.146c-0.403,0.643-1.352,0.67-1.352,0.67
			L201.014,279.399z"/>
		<path style="fill:#263238;" d="M197.314,278.806c-0.03,0.008-0.062,0.01-0.093,0.006c-0.091-0.04-0.136-0.143-0.103-0.237
			c0.204-0.548,0.659-0.965,1.222-1.122c0.099-0.021,0.196,0.043,0.216,0.142c0.021,0.099-0.043,0.196-0.142,0.216l0,0
			c-0.445,0.128-0.801,0.462-0.958,0.898C197.43,278.764,197.375,278.801,197.314,278.806z"/>
		<path style="fill:#263238;" d="M203.162,277.208c-0.061,0.01-0.123-0.013-0.163-0.061c-0.295-0.352-0.74-0.543-1.198-0.515
			c-0.099,0.015-0.192-0.054-0.206-0.153c-0.015-0.099,0.054-0.191,0.153-0.206c0.585-0.049,1.158,0.187,1.537,0.636
			c0.066,0.072,0.061,0.184-0.012,0.249c-0.001,0.001-0.003,0.002-0.004,0.004C203.24,277.189,203.202,277.206,203.162,277.208z"/>
		<path style="fill:#263238;" d="M201.48,283.972c0.181,0.001,0.361-0.015,0.54-0.047c0.051-0.008,0.086-0.057,0.078-0.108
			c0-0.001,0-0.002-0.001-0.003c-0.009-0.051-0.056-0.085-0.107-0.077c-0.798,0.156-1.622-0.074-2.223-0.621
			c-0.036-0.039-0.096-0.042-0.135-0.007c-0.039,0.036-0.042,0.096-0.007,0.135C200.126,283.717,200.791,283.978,201.48,283.972z"/>
		<path style="fill:#407BFF;" d="M191.238,282.007c0,0-3.053-2.048-3.197-4.059c-0.144-2.012,1.078-5.358,3.348-6.897
			c2.278-1.543,6.906-2.834,10.939,2.414l-6.534,1.974l-2.605,2.693L191.238,282.007z"/>
		<path style="opacity:0.3;" d="M191.238,282.007c0,0-3.053-2.048-3.197-4.059c-0.144-2.012,1.078-5.358,3.348-6.897
			c2.278-1.543,6.906-2.834,10.939,2.414l-6.534,1.974l-2.605,2.693L191.238,282.007z"/>
		<path style="fill:#407BFF;" d="M191.39,282.241c0,0,2.976-8.225,11.128-8.125c0,0,2.215-6.047-2.096-5.436
			c-4.311,0.611-6.83,8.5-6.83,8.5S189.666,281.422,191.39,282.241z"/>
		<path style="opacity:0.5;fill:#FFFFFF;" d="M191.39,282.241c0,0,2.976-8.225,11.128-8.125c0,0,2.215-6.047-2.096-5.436
			c-4.311,0.611-6.83,8.5-6.83,8.5S189.666,281.422,191.39,282.241z"/>
		<path style="opacity:0.8;fill:#FFFFFF;" d="M214.897,323.6c-0.076-1.239-0.173-2.706-0.294-4.326
			c-12.636,3.486-21.983,2.857-25.198,2.467l0.177,3.86C202.423,326.757,211.441,324.634,214.897,323.6z"/>
		<g>
			<path style="fill:#263238;" d="M192.551,309.453l10.269,1.213c0,0-2.082,9.796,1.371,13.904l-8.151,0.095L192.551,309.453z"/>
			<path style="opacity:0.7;fill:#FFFFFF;" d="M192.551,309.453l10.269,1.213c0,0-2.082,9.796,1.371,13.904l-8.151,0.095
				L192.551,309.453z"/>
			<path style="fill:#263238;" d="M199.86,326.119l-8.847-1.045c-0.868-0.103-1.488-0.889-1.386-1.757l1.568-13.278
				c0.102-0.868,0.889-1.488,1.757-1.386l8.847,1.045c0.868,0.102,1.488,0.889,1.386,1.757l-1.568,13.278
				C201.514,325.601,200.728,326.222,199.86,326.119z"/>
			<path style="opacity:0.5;fill:#FFFFFF;" d="M199.86,326.119l-8.847-1.045c-0.868-0.103-1.488-0.889-1.386-1.757l1.568-13.278
				c0.102-0.868,0.889-1.488,1.757-1.386l8.847,1.045c0.868,0.102,1.488,0.889,1.386,1.757l-1.568,13.278
				C201.514,325.601,200.728,326.222,199.86,326.119z"/>
			<path style="fill:#263238;" d="M197.728,308.479l0.908-1.015c0.212-0.237,0.069-0.614-0.246-0.651l-1.449-0.171
				c-0.316-0.037-0.542,0.296-0.391,0.576l0.646,1.198l-2.6-0.307l-0.153,1.292c-0.069,0.582,0.347,1.109,0.929,1.178l3.627,0.428
				c0.582,0.069,1.109-0.347,1.178-0.929l0.153-1.292L197.728,308.479z"/>
		</g>
		<path style="fill:#FFC3BD;" d="M181.817,312.432l7.567,4.502l4.68-1.225c0.288-0.075,0.593-0.049,0.864,0.074l0,0
			c0.644,0.293,0.934,1.049,0.651,1.698l-0.908,2.077c-0.236,0.542-0.809,0.854-1.393,0.76l-4.661-0.75l-9.1-3.832L181.817,312.432z
			"/>
		<g>
			<path style="fill:#407BFF;" d="M188.104,293.322c0,0-12.501,15.949-12.309,18.919c0.192,2.97,5.843,4.789,5.843,4.789
				l2.491-3.544l-2.18-2.107c0,0,5.03-5.206,6.663-6.983C190.486,302.355,192.941,299.5,188.104,293.322z"/>
			<path style="opacity:0.5;" d="M188.104,293.322c0,0-12.501,15.949-12.309,18.919c0.192,2.97,5.843,4.789,5.843,4.789l2.491-3.544
				l-2.18-2.107c0,0,5.03-5.206,6.663-6.983C190.486,302.355,192.941,299.5,188.104,293.322z"/>
			<polygon style="fill:#407BFF;" points="183.985,312.384 180.632,317.365 182.308,317.94 185.086,313.869 			"/>
			<polygon style="opacity:0.5;fill:#FFFFFF;" points="183.985,312.384 180.632,317.365 182.308,317.94 185.086,313.869 			"/>
		</g>
		<g>
			<path style="fill:#407BFF;" d="M206.442,330.903l-3.084-30.186c-0.054-0.528-0.498-0.929-1.029-0.929l3.263,31.269
				C205.875,331.009,206.158,330.958,206.442,330.903z"/>
		</g>
	</g>
</g>
</svg>
